<?xml version="1.0" standalone="no"?>
<!DOCTYPE svg PUBLIC "-//W3C//DTD SVG 20010904//EN"
 "http://www.w3.org/TR/2001/REC-SVG-20010904/DTD/svg10.dtd">
<svg version="1.0" xmlns="http://www.w3.org/2000/svg"
 width="478.000000pt" height="478.000000pt" viewBox="0 0 478.000000 478.000000"
 preserveAspectRatio="xMidYMid meet">
<metadata>
Created by potrace 1.11, written by Peter Selinger 2001-2013
</metadata>
<g transform="translate(0.000000,478.000000) scale(0.100000,-0.100000)"
fill="#000000" stroke="none">
<path d="M1040 4601 c-88 -27 -171 -97 -211 -177 -23 -48 -24 -57 -29 -344
l-5 -295 -285 0 c-280 -1 -286 -1 -326 -24 -44 -25 -79 -76 -89 -130 -13 -75
48 -170 123 -191 21 -5 155 -10 310 -10 l272 0 1 -272 c0 -150 2 -284 5 -298
19 -108 131 -221 242 -245 37 -8 2644 -9 2682 -1 46 10 127 56 156 88 85 96
93 132 93 441 0 138 1 260 1 269 0 15 23 17 233 20 222 3 234 4 269 26 53 33
81 84 82 146 0 52 -23 109 -53 134 -53 43 -80 47 -306 47 -140 0 -219 3 -221
10 -2 5 -6 134 -7 285 -2 151 -6 285 -9 296 -24 83 -94 164 -178 203 l-55 26
-1335 2 c-734 1 -1346 -2 -1360 -6z"/>
<path d="M202 1898 c-152 -26 -243 -194 -181 -333 11 -23 314 -414 339 -435 3
-3 30 -36 60 -75 30 -38 57 -72 60 -75 3 -3 24 -27 45 -55 286 -360 670 -622
1149 -782 l111 -38 583 -3 582 -3 107 31 c250 72 536 210 719 346 32 24 70 52
83 61 13 10 29 23 35 28 6 6 27 23 46 39 46 37 167 154 221 214 62 68 157 183
249 302 19 25 40 51 47 58 7 7 34 41 60 75 26 34 50 64 54 67 4 3 22 26 41 51
36 46 55 70 96 117 63 72 82 166 54 255 -19 59 -95 132 -155 148 -45 12 -4335
19 -4405 7z"/>
</g>
</svg>
